<svg xmlns="http://www.w3.org/2000/svg" viewBox="0 0 1600 900" role="img" aria-label="Air compression particle diagram">
  <defs>
    <linearGradient id="bg" x1="0" x2="1" y1="0" y2="1">
      <stop offset="0" stop-color="#f8fafc"/>
      <stop offset="1" stop-color="#e0f2fe"/>
    </linearGradient>
    <marker id="arrow" viewBox="0 0 10 10" refX="8" refY="5" markerWidth="9" markerHeight="9" orient="auto">
      <path d="M0 0 L10 5 L0 10z" fill="#2563eb"/>
    </marker>
  </defs>
  <rect width="1600" height="900" fill="url(#bg)"/>
  <g transform="translate(120 188)">
    <rect x="0" y="150" width="520" height="190" rx="95" fill="#f8fafc" stroke="#64748b" stroke-width="12"/>
    <rect x="430" y="198" width="140" height="94" rx="47" fill="#f8fafc" stroke="#64748b" stroke-width="12"/>
    <path d="M136 150 V72 M364 150 V72 M96 72 H404" stroke="#64748b" stroke-width="14" stroke-linecap="round"/>
    <path d="M96 415 H404 M250 340 V415" stroke="#64748b" stroke-width="14" stroke-linecap="round"/>
    <g fill="#38bdf8">
      <circle cx="84" cy="244" r="18"/>
      <circle cx="162" cy="205" r="18"/>
      <circle cx="246" cy="273" r="18"/>
      <circle cx="318" cy="222" r="18"/>
      <circle cx="402" cy="268" r="18"/>
    </g>
  </g>
  <path d="M718 432 H914" fill="none" stroke="#2563eb" stroke-width="18" stroke-linecap="round" marker-end="url(#arrow)"/>
  <g transform="translate(956 188)">
    <rect x="0" y="150" width="420" height="190" rx="95" fill="#f8fafc" stroke="#64748b" stroke-width="12"/>
    <rect x="330" y="198" width="140" height="94" rx="47" fill="#f8fafc" stroke="#64748b" stroke-width="12"/>
    <path d="M128 150 V72 M260 150 V72 M88 72 H300" stroke="#64748b" stroke-width="14" stroke-linecap="round"/>
    <path d="M88 415 H300 M210 340 V415" stroke="#64748b" stroke-width="14" stroke-linecap="round"/>
    <g fill="#38bdf8">
      <circle cx="112" cy="238" r="18"/>
      <circle cx="158" cy="214" r="18"/>
      <circle cx="206" cy="262" r="18"/>
      <circle cx="244" cy="226" r="18"/>
      <circle cx="286" cy="270" r="18"/>
    </g>
  </g>
  <g opacity="0.7" fill="none" stroke="#0f172a" stroke-width="5" stroke-linecap="round">
    <path d="M196 228 q22 -24 44 0"/>
    <path d="M394 248 q22 -24 44 0"/>
    <path d="M1084 218 q22 -18 44 0"/>
    <path d="M1206 254 q22 -18 44 0"/>
  </g>
</svg>
