<svg xmlns="http://www.w3.org/2000/svg" viewBox="0 0 1600 900" role="img" aria-label="Particle model assessment visual">
  <defs>
    <linearGradient id="bg" x1="0" x2="1" y1="0" y2="1">
      <stop offset="0" stop-color="#f8fafc"/>
      <stop offset="1" stop-color="#eef2ff"/>
    </linearGradient>
  </defs>
  <rect width="1600" height="900" fill="url(#bg)"/>
  <g transform="translate(430 110)">
    <rect x="0" y="58" width="740" height="650" rx="64" fill="#ffffff" stroke="#c7d2fe" stroke-width="11"/>
    <rect x="244" y="0" width="252" height="104" rx="42" fill="#dbeafe" stroke="#818cf8" stroke-width="10"/>
    <rect x="102" y="156" width="536" height="102" rx="32" fill="#f8fafc" stroke="#cbd5e1" stroke-width="7"/>
    <rect x="102" y="306" width="536" height="102" rx="32" fill="#f8fafc" stroke="#cbd5e1" stroke-width="7"/>
    <rect x="102" y="456" width="536" height="102" rx="32" fill="#f8fafc" stroke="#cbd5e1" stroke-width="7"/>
    <path d="M146 202 l28 28 l60 -70" fill="none" stroke="#16a34a" stroke-width="16" stroke-linecap="round" stroke-linejoin="round"/>
    <path d="M146 352 l28 28 l60 -70" fill="none" stroke="#16a34a" stroke-width="16" stroke-linecap="round" stroke-linejoin="round"/>
    <path d="M146 502 l28 28 l60 -70" fill="none" stroke="#16a34a" stroke-width="16" stroke-linecap="round" stroke-linejoin="round"/>
    <g transform="translate(316 174)" fill="#2563eb">
      <circle cx="0" cy="0" r="14"/><circle cx="40" cy="0" r="14"/><circle cx="80" cy="0" r="14"/>
      <circle cx="0" cy="40" r="14"/><circle cx="40" cy="40" r="14"/><circle cx="80" cy="40" r="14"/>
    </g>
    <g transform="translate(314 323)" fill="#10b981">
      <circle cx="8" cy="16" r="15"/><circle cx="52" cy="0" r="15"/><circle cx="98" cy="20" r="15"/>
      <circle cx="34" cy="58" r="15"/><circle cx="84" cy="62" r="15"/>
    </g>
    <g transform="translate(308 470)" fill="#ef4444">
      <circle cx="0" cy="0" r="14"/><circle cx="98" cy="-12" r="14"/><circle cx="176" cy="44" r="14"/>
      <circle cx="42" cy="92" r="14"/><circle cx="144" cy="112" r="14"/>
    </g>
  </g>
</svg>
