<svg xmlns="http://www.w3.org/2000/svg" viewBox="0 0 1600 900" role="img" aria-label="Particle model assignment visual">
  <defs>
    <linearGradient id="bg" x1="0" x2="1" y1="0" y2="1">
      <stop offset="0" stop-color="#f8fafc"/>
      <stop offset="1" stop-color="#ecfdf5"/>
    </linearGradient>
    <marker id="arrow" viewBox="0 0 10 10" refX="8" refY="5" markerWidth="7" markerHeight="7" orient="auto">
      <path d="M0 0 L10 5 L0 10z" fill="#0f766e"/>
    </marker>
  </defs>
  <rect width="1600" height="900" fill="url(#bg)"/>
  <rect x="196" y="652" width="1208" height="78" rx="39" fill="#bbf7d0"/>
  <g transform="translate(292 142)">
    <rect x="0" y="0" width="420" height="560" rx="54" fill="#ffffff" stroke="#86efac" stroke-width="10"/>
    <path d="M74 104 H346 M74 184 H346 M74 264 H346 M74 344 H300 M74 424 H248" stroke="#cbd5e1" stroke-width="12" stroke-linecap="round"/>
    <g transform="translate(248 334)">
      <rect x="0" y="0" width="116" height="132" rx="30" fill="#e0f2fe" stroke="#38bdf8" stroke-width="7"/>
      <path d="M20 52 C48 36 74 68 96 48 L96 110 L20 110 Z" fill="#7dd3fc" opacity="0.65"/>
      <circle cx="42" cy="90" r="8" fill="#f59e0b"/>
      <circle cx="62" cy="76" r="7" fill="#f59e0b"/>
      <circle cx="82" cy="90" r="7" fill="#f59e0b"/>
    </g>
  </g>
  <g transform="translate(868 188)">
    <rect x="0" y="0" width="386" height="398" rx="54" fill="#ffffff" stroke="#bae6fd" stroke-width="10"/>
    <path d="M68 102 C144 74 238 132 318 98 L318 320 L68 320 Z" fill="#bae6fd" opacity="0.72"/>
    <path d="M68 102 C144 74 238 132 318 98" stroke="#0284c7" stroke-width="8" fill="none" opacity="0.48"/>
    <g fill="#06b6d4">
      <circle cx="106" cy="80" r="10"/><circle cx="160" cy="64" r="10"/><circle cx="222" cy="76" r="10"/><circle cx="278" cy="60" r="10"/>
    </g>
    <g fill="#0284c7" opacity="0.5">
      <circle cx="116" cy="356" r="11"/><circle cx="176" cy="364" r="11"/><circle cx="236" cy="354" r="11"/>
    </g>
  </g>
  <path d="M748 406 C812 376 820 342 864 322" fill="none" stroke="#0f766e" stroke-width="11" stroke-linecap="round" marker-end="url(#arrow)" opacity="0.56"/>
</svg>
