<svg xmlns="http://www.w3.org/2000/svg" viewBox="0 0 1600 900" role="img" aria-label="Temperature and particle motion diagram">
  <defs>
    <linearGradient id="bg" x1="0" x2="1" y1="0" y2="1">
      <stop offset="0" stop-color="#f8fafc"/>
      <stop offset="1" stop-color="#fff7ed"/>
    </linearGradient>
    <marker id="coolArrow" viewBox="0 0 10 10" refX="8" refY="5" markerWidth="7" markerHeight="7" orient="auto">
      <path d="M0 0 L10 5 L0 10z" fill="#0284c7"/>
    </marker>
    <marker id="warmArrow" viewBox="0 0 10 10" refX="8" refY="5" markerWidth="7" markerHeight="7" orient="auto">
      <path d="M0 0 L10 5 L0 10z" fill="#ea580c"/>
    </marker>
  </defs>
  <rect width="1600" height="900" fill="url(#bg)"/>
  <g transform="translate(180 142)">
    <rect x="0" y="86" width="460" height="578" rx="64" fill="#ffffff" stroke="#7dd3fc" stroke-width="10"/>
    <path d="M60 218 C160 182 300 242 400 208 L400 592 L60 592 Z" fill="#bae6fd" opacity="0.78"/>
    <path d="M60 218 C160 182 300 242 400 208" fill="none" stroke="#0284c7" stroke-width="9" opacity="0.48"/>
    <circle cx="230" cy="248" r="36" fill="#7c3aed" opacity="0.8"/>
    <circle cx="205" cy="292" r="19" fill="#7c3aed" opacity="0.64"/>
    <circle cx="255" cy="302" r="19" fill="#7c3aed" opacity="0.64"/>
    <circle cx="180" cy="352" r="14" fill="#7c3aed" opacity="0.5"/>
    <circle cx="280" cy="366" r="14" fill="#7c3aed" opacity="0.5"/>
    <circle cx="224" cy="426" r="12" fill="#7c3aed" opacity="0.38"/>
    <path d="M216 248 C190 270 184 304 181 350 M242 252 C268 280 276 322 282 366 M228 276 C218 328 218 384 224 426" fill="none" stroke="#0284c7" stroke-width="9" stroke-linecap="round" marker-end="url(#coolArrow)" opacity="0.46"/>
  </g>
  <g transform="translate(960 142)">
    <rect x="0" y="86" width="460" height="578" rx="64" fill="#ffffff" stroke="#fed7aa" stroke-width="10"/>
    <path d="M60 218 C160 182 300 242 400 208 L400 592 L60 592 Z" fill="#fed7aa" opacity="0.72"/>
    <path d="M60 218 C160 182 300 242 400 208" fill="none" stroke="#f97316" stroke-width="9" opacity="0.44"/>
    <circle cx="230" cy="248" r="36" fill="#7c3aed" opacity="0.8"/>
    <circle cx="152" cy="306" r="18" fill="#7c3aed" opacity="0.6"/>
    <circle cx="318" cy="326" r="18" fill="#7c3aed" opacity="0.6"/>
    <circle cx="104" cy="420" r="13" fill="#7c3aed" opacity="0.46"/>
    <circle cx="374" cy="464" r="13" fill="#7c3aed" opacity="0.46"/>
    <circle cx="226" cy="530" r="12" fill="#7c3aed" opacity="0.34"/>
    <path d="M224 244 C150 276 118 340 104 420 M236 250 C314 286 352 372 374 464 M230 282 C194 374 194 462 226 530" fill="none" stroke="#ea580c" stroke-width="11" stroke-linecap="round" marker-end="url(#warmArrow)" opacity="0.58"/>
  </g>
  <g opacity="0.55" stroke-width="9" stroke-linecap="round" fill="none">
    <path d="M760 388 h80" stroke="#94a3b8"/>
    <path d="M800 348 v80" stroke="#94a3b8"/>
  </g>
</svg>
