<svg xmlns="http://www.w3.org/2000/svg" viewBox="0 0 1600 900" role="img" aria-label="Dissolving and diffusion particle diagram">
  <defs>
    <linearGradient id="bg" x1="0" x2="1" y1="0" y2="1">
      <stop offset="0" stop-color="#f0fdfa"/>
      <stop offset="1" stop-color="#eff6ff"/>
    </linearGradient>
    <radialGradient id="water" cx="50%" cy="35%" r="70%">
      <stop offset="0" stop-color="#dff7ff"/>
      <stop offset="1" stop-color="#67c3ef"/>
    </radialGradient>
  </defs>
  <rect width="1600" height="900" fill="url(#bg)"/>
  <g transform="translate(118 135)">
    <rect x="0" y="94" width="420" height="560" rx="62" fill="#ffffff" stroke="#7dd3fc" stroke-width="10"/>
    <path d="M54 214 C150 168 270 254 366 202 L366 585 L54 585 Z" fill="url(#water)" opacity="0.72"/>
    <path d="M54 214 C150 168 270 254 366 202" fill="none" stroke="#0284c7" stroke-width="9" opacity="0.48"/>
    <g fill="#f59e0b">
      <circle cx="136" cy="520" r="18"/>
      <circle cx="172" cy="486" r="16"/>
      <circle cx="212" cy="526" r="17"/>
      <circle cx="248" cy="492" r="14"/>
      <circle cx="108" cy="433" r="12"/>
      <circle cx="164" cy="394" r="12"/>
      <circle cx="232" cy="382" r="12"/>
      <circle cx="296" cy="326" r="10"/>
      <circle cx="328" cy="260" r="9"/>
    </g>
    <path d="M168 498 C134 436 166 388 230 372 C274 360 310 316 328 260" fill="none" stroke="#f59e0b" stroke-width="9" stroke-linecap="round" opacity="0.56"/>
  </g>
  <g transform="translate(612 135)">
    <rect x="0" y="94" width="420" height="560" rx="62" fill="#ffffff" stroke="#99f6e4" stroke-width="10"/>
    <path d="M54 214 C150 168 270 254 366 202 L366 585 L54 585 Z" fill="#a7f3d0" opacity="0.56"/>
    <path d="M54 214 C150 168 270 254 366 202" fill="none" stroke="#0d9488" stroke-width="9" opacity="0.42"/>
    <circle cx="210" cy="238" r="34" fill="#7c3aed" opacity="0.88"/>
    <circle cx="176" cy="274" r="20" fill="#7c3aed" opacity="0.72"/>
    <circle cx="246" cy="282" r="20" fill="#7c3aed" opacity="0.72"/>
    <circle cx="138" cy="326" r="16" fill="#7c3aed" opacity="0.58"/>
    <circle cx="284" cy="340" r="16" fill="#7c3aed" opacity="0.58"/>
    <circle cx="104" cy="404" r="12" fill="#7c3aed" opacity="0.46"/>
    <circle cx="314" cy="434" r="12" fill="#7c3aed" opacity="0.46"/>
    <circle cx="206" cy="468" r="10" fill="#7c3aed" opacity="0.38"/>
    <path d="M210 238 C150 270 120 326 104 404 M212 238 C270 278 300 346 314 434 M206 258 C194 328 197 400 206 468" fill="none" stroke="#6d28d9" stroke-width="10" stroke-linecap="round" opacity="0.36"/>
  </g>
  <g transform="translate(1110 176)">
    <rect x="0" y="0" width="360" height="518" rx="64" fill="#ffffff" stroke="#c4b5fd" stroke-width="10"/>
    <path d="M52 122 C128 84 230 154 308 116 L308 453 L52 453 Z" fill="#ddd6fe" opacity="0.65"/>
    <g fill="#7c3aed" opacity="0.78">
      <circle cx="112" cy="228" r="13"/>
      <circle cx="158" cy="256" r="13"/>
      <circle cx="212" cy="228" r="13"/>
      <circle cx="250" cy="282" r="13"/>
      <circle cx="92" cy="320" r="11"/>
      <circle cx="174" cy="344" r="11"/>
      <circle cx="278" cy="364" r="11"/>
      <circle cx="134" cy="408" r="10"/>
      <circle cx="220" cy="414" r="10"/>
    </g>
    <g fill="#f59e0b">
      <circle cx="106" cy="392" r="12"/>
      <circle cx="142" cy="374" r="12"/>
      <circle cx="196" cy="386" r="12"/>
      <circle cx="242" cy="360" r="12"/>
      <circle cx="282" cy="318" r="10"/>
    </g>
  </g>
</svg>
