<svg xmlns="http://www.w3.org/2000/svg" viewBox="0 0 1600 900" role="img" aria-label="Particle model generalization visual">
  <defs>
    <linearGradient id="bg" x1="0" x2="1" y1="0" y2="1">
      <stop offset="0" stop-color="#f8fafc"/>
      <stop offset="1" stop-color="#ecfdf5"/>
    </linearGradient>
    <marker id="arrow" viewBox="0 0 10 10" refX="8" refY="5" markerWidth="8" markerHeight="8" orient="auto">
      <path d="M0 0 L10 5 L0 10z" fill="#0f766e"/>
    </marker>
  </defs>
  <rect width="1600" height="900" fill="url(#bg)"/>
  <circle cx="800" cy="450" r="170" fill="#ffffff" stroke="#99f6e4" stroke-width="12"/>
  <g fill="#0f766e">
    <circle cx="742" cy="398" r="25"/><circle cx="807" cy="372" r="25"/><circle cx="868" cy="412" r="25"/>
    <circle cx="710" cy="476" r="25"/><circle cx="786" cy="488" r="25"/><circle cx="862" cy="500" r="25"/>
    <circle cx="812" cy="560" r="25"/>
  </g>
  <g fill="none" stroke="#0f766e" stroke-width="7" stroke-linecap="round" marker-end="url(#arrow)" opacity="0.56">
    <path d="M742 422 C762 450 784 448 804 414"/>
    <path d="M826 560 C864 540 888 510 902 470"/>
    <path d="M716 474 C680 434 684 404 724 374"/>
  </g>
  <g transform="translate(116 136)">
    <rect x="0" y="0" width="330" height="220" rx="42" fill="#ffffff" stroke="#bae6fd" stroke-width="9"/>
    <rect x="70" y="62" width="190" height="118" rx="34" fill="#e0f2fe" stroke="#38bdf8" stroke-width="7"/>
    <g fill="#f59e0b">
      <circle cx="112" cy="144" r="12"/><circle cx="152" cy="126" r="12"/><circle cx="204" cy="142" r="12"/><circle cx="232" cy="106" r="10"/>
    </g>
  </g>
  <g transform="translate(1154 136)">
    <rect x="0" y="0" width="330" height="220" rx="42" fill="#ffffff" stroke="#fed7aa" stroke-width="9"/>
    <rect x="74" y="60" width="182" height="118" rx="34" fill="#ffedd5" stroke="#fb923c" stroke-width="7"/>
    <g fill="#7c3aed">
      <circle cx="124" cy="98" r="15"/><circle cx="166" cy="124" r="15"/><circle cx="220" cy="104" r="15"/><circle cx="250" cy="148" r="12"/>
    </g>
  </g>
  <g transform="translate(134 562)">
    <rect x="0" y="0" width="330" height="220" rx="42" fill="#ffffff" stroke="#c4b5fd" stroke-width="9"/>
    <g fill="#2563eb">
      <circle cx="116" cy="84" r="19"/><circle cx="172" cy="84" r="19"/><circle cx="228" cy="84" r="19"/>
      <circle cx="144" cy="140" r="19"/><circle cx="200" cy="140" r="19"/>
    </g>
  </g>
  <g transform="translate(1140 562)">
    <rect x="0" y="0" width="330" height="220" rx="42" fill="#ffffff" stroke="#fecaca" stroke-width="9"/>
    <g fill="#ef4444">
      <circle cx="82" cy="74" r="16"/><circle cx="208" cy="72" r="16"/><circle cx="266" cy="148" r="16"/><circle cx="122" cy="162" r="16"/>
    </g>
    <g fill="none" stroke="#dc2626" stroke-width="6" marker-end="url(#arrow)" opacity="0.52">
      <path d="M98 74 L146 48"/><path d="M222 78 L254 116"/><path d="M136 154 L190 126"/>
    </g>
  </g>
  <path d="M446 246 C558 282 624 342 662 390" fill="none" stroke="#0f766e" stroke-width="10" marker-end="url(#arrow)" opacity="0.48"/>
  <path d="M1154 246 C1042 282 976 342 938 390" fill="none" stroke="#0f766e" stroke-width="10" marker-end="url(#arrow)" opacity="0.48"/>
  <path d="M464 650 C570 622 638 556 682 510" fill="none" stroke="#0f766e" stroke-width="10" marker-end="url(#arrow)" opacity="0.48"/>
  <path d="M1140 650 C1034 622 966 556 922 510" fill="none" stroke="#0f766e" stroke-width="10" marker-end="url(#arrow)" opacity="0.48"/>
</svg>
