<svg xmlns="http://www.w3.org/2000/svg" viewBox="0 0 1600 900" role="img" aria-label="Particle model diagram">
  <defs>
    <linearGradient id="bg" x1="0" x2="1" y1="0" y2="1">
      <stop offset="0" stop-color="#f8fafc"/>
      <stop offset="1" stop-color="#ecfeff"/>
    </linearGradient>
    <marker id="arrow" viewBox="0 0 10 10" refX="8" refY="5" markerWidth="8" markerHeight="8" orient="auto">
      <path d="M0 0 L10 5 L0 10z" fill="#0f766e"/>
    </marker>
  </defs>
  <rect width="1600" height="900" fill="url(#bg)"/>
  <g transform="translate(180 176)">
    <rect x="0" y="0" width="1240" height="548" rx="70" fill="#ffffff" stroke="#a5f3fc" stroke-width="10"/>
    <g transform="translate(86 88)">
      <circle cx="46" cy="46" r="28" fill="#2563eb"/>
      <circle cx="116" cy="46" r="28" fill="#2563eb"/>
      <circle cx="186" cy="46" r="28" fill="#2563eb"/>
      <circle cx="46" cy="116" r="28" fill="#2563eb"/>
      <circle cx="116" cy="116" r="28" fill="#2563eb"/>
      <circle cx="186" cy="116" r="28" fill="#2563eb"/>
      <circle cx="46" cy="186" r="28" fill="#2563eb"/>
      <circle cx="116" cy="186" r="28" fill="#2563eb"/>
      <circle cx="186" cy="186" r="28" fill="#2563eb"/>
      <path d="M18 26 q26 -28 52 0 M88 96 q26 -28 52 0 M158 166 q26 -28 52 0" fill="none" stroke="#0f172a" stroke-width="6" stroke-linecap="round" opacity="0.38"/>
    </g>
    <g transform="translate(440 104)">
      <circle cx="52" cy="72" r="30" fill="#10b981"/>
      <circle cx="130" cy="48" r="30" fill="#10b981"/>
      <circle cx="208" cy="88" r="30" fill="#10b981"/>
      <circle cx="86" cy="166" r="30" fill="#10b981"/>
      <circle cx="174" cy="184" r="30" fill="#10b981"/>
      <circle cx="254" cy="148" r="30" fill="#10b981"/>
      <path d="M78 78 C104 104 132 105 162 74 M104 184 C132 214 170 214 202 188 M212 108 C236 122 250 126 276 122" fill="none" stroke="#059669" stroke-width="8" stroke-linecap="round" marker-end="url(#arrow)" opacity="0.52"/>
    </g>
    <g transform="translate(828 82)">
      <circle cx="34" cy="54" r="25" fill="#ef4444"/>
      <circle cx="202" cy="38" r="25" fill="#ef4444"/>
      <circle cx="320" cy="140" r="25" fill="#ef4444"/>
      <circle cx="110" cy="198" r="25" fill="#ef4444"/>
      <circle cx="274" cy="286" r="25" fill="#ef4444"/>
      <circle cx="58" cy="332" r="25" fill="#ef4444"/>
      <path d="M54 48 L114 30 M218 46 L278 96 M300 154 L236 194 M126 204 L178 252 M262 300 L204 346" fill="none" stroke="#dc2626" stroke-width="8" stroke-linecap="round" marker-end="url(#arrow)" opacity="0.58"/>
    </g>
    <path d="M344 214 H404" stroke="#0f766e" stroke-width="12" stroke-linecap="round" marker-end="url(#arrow)" opacity="0.56"/>
    <path d="M744 214 H804" stroke="#0f766e" stroke-width="12" stroke-linecap="round" marker-end="url(#arrow)" opacity="0.56"/>
  </g>
  <g transform="translate(300 760)" fill="#94a3b8" opacity="0.26">
    <circle cx="0" cy="0" r="22"/><circle cx="118" cy="-18" r="16"/><circle cx="938" cy="-2" r="24"/><circle cx="1036" cy="-30" r="18"/>
  </g>
</svg>
