<svg xmlns="http://www.w3.org/2000/svg" viewBox="0 0 1600 900" role="img" aria-label="Solids liquids and gases particle diagram">
  <defs>
    <linearGradient id="bg" x1="0" x2="1" y1="0" y2="1">
      <stop offset="0" stop-color="#f8fafc"/>
      <stop offset="1" stop-color="#eef2ff"/>
    </linearGradient>
    <marker id="blueArrow" viewBox="0 0 10 10" refX="8" refY="5" markerWidth="7" markerHeight="7" orient="auto">
      <path d="M0 0 L10 5 L0 10z" fill="#2563eb"/>
    </marker>
    <marker id="greenArrow" viewBox="0 0 10 10" refX="8" refY="5" markerWidth="7" markerHeight="7" orient="auto">
      <path d="M0 0 L10 5 L0 10z" fill="#059669"/>
    </marker>
    <marker id="redArrow" viewBox="0 0 10 10" refX="8" refY="5" markerWidth="7" markerHeight="7" orient="auto">
      <path d="M0 0 L10 5 L0 10z" fill="#dc2626"/>
    </marker>
  </defs>
  <rect width="1600" height="900" fill="url(#bg)"/>
  <g transform="translate(95 156)">
    <rect x="0" y="0" width="420" height="560" rx="52" fill="#ffffff" stroke="#bfdbfe" stroke-width="10"/>
    <g transform="translate(92 142)" fill="#2563eb">
      <circle cx="0" cy="0" r="26"/><circle cx="68" cy="0" r="26"/><circle cx="136" cy="0" r="26"/><circle cx="204" cy="0" r="26"/>
      <circle cx="0" cy="68" r="26"/><circle cx="68" cy="68" r="26"/><circle cx="136" cy="68" r="26"/><circle cx="204" cy="68" r="26"/>
      <circle cx="0" cy="136" r="26"/><circle cx="68" cy="136" r="26"/><circle cx="136" cy="136" r="26"/><circle cx="204" cy="136" r="26"/>
      <circle cx="0" cy="204" r="26"/><circle cx="68" cy="204" r="26"/><circle cx="136" cy="204" r="26"/><circle cx="204" cy="204" r="26"/>
    </g>
    <g fill="none" stroke="#2563eb" stroke-width="6" stroke-linecap="round" opacity="0.58">
      <path d="M82 120 q18 -24 36 0"/><path d="M218 190 q18 -24 36 0"/><path d="M150 324 q18 -24 36 0"/>
    </g>
  </g>
  <g transform="translate(590 156)">
    <rect x="0" y="0" width="420" height="560" rx="52" fill="#ffffff" stroke="#bbf7d0" stroke-width="10"/>
    <g fill="#10b981">
      <circle cx="150" cy="168" r="28"/><circle cx="218" cy="146" r="28"/><circle cx="282" cy="184" r="28"/>
      <circle cx="118" cy="244" r="28"/><circle cx="190" cy="252" r="28"/><circle cx="260" cy="254" r="28"/><circle cx="318" cy="232" r="28"/>
      <circle cx="150" cy="326" r="28"/><circle cx="224" cy="334" r="28"/><circle cx="292" cy="314" r="28"/>
      <circle cx="184" cy="404" r="28"/><circle cx="256" cy="408" r="28"/>
    </g>
    <g fill="none" stroke="#059669" stroke-width="8" stroke-linecap="round" marker-end="url(#greenArrow)" opacity="0.58">
      <path d="M154 190 C176 214 204 216 230 190"/>
      <path d="M124 272 C154 294 188 296 218 274"/>
      <path d="M246 358 C278 380 308 370 328 340"/>
    </g>
  </g>
  <g transform="translate(1085 156)">
    <rect x="0" y="0" width="420" height="560" rx="52" fill="#ffffff" stroke="#fecaca" stroke-width="10"/>
    <g fill="#ef4444">
      <circle cx="92" cy="118" r="22"/><circle cx="286" cy="92" r="22"/><circle cx="354" cy="220" r="22"/>
      <circle cx="164" cy="260" r="22"/><circle cx="72" cy="400" r="22"/><circle cx="246" cy="422" r="22"/>
      <circle cx="344" cy="456" r="22"/><circle cx="210" cy="144" r="22"/>
    </g>
    <g fill="none" stroke="#dc2626" stroke-width="8" stroke-linecap="round" marker-end="url(#redArrow)" opacity="0.58">
      <path d="M108 110 L156 78"/><path d="M302 104 L340 158"/><path d="M336 236 L276 280"/>
      <path d="M178 274 L130 340"/><path d="M90 388 L142 356"/><path d="M258 408 L306 368"/>
    </g>
  </g>
</svg>
