<svg xmlns="http://www.w3.org/2000/svg" viewBox="0 0 1600 900" role="img" aria-label="Evidence for particle model illustration">
  <defs>
    <linearGradient id="bg" x1="0" x2="1" y1="0" y2="1">
      <stop offset="0" stop-color="#f7fbff"/>
      <stop offset="1" stop-color="#e0f2fe"/>
    </linearGradient>
    <marker id="arrow" viewBox="0 0 10 10" refX="8" refY="5" markerWidth="7" markerHeight="7" orient="auto">
      <path d="M0 0 L10 5 L0 10z" fill="#0f766e"/>
    </marker>
  </defs>
  <rect width="1600" height="900" fill="url(#bg)"/>
  <rect x="92" y="698" width="1416" height="70" rx="35" fill="#bae6fd"/>
  <g transform="translate(142 154)">
    <rect x="0" y="98" width="330" height="426" rx="42" fill="#ffffff" stroke="#7dd3fc" stroke-width="9"/>
    <path d="M42 194 C120 230 203 154 288 190 L288 468 L42 468 Z" fill="#7dd3fc" opacity="0.6"/>
    <path d="M42 194 C120 230 203 154 288 190" fill="none" stroke="#0284c7" stroke-width="8" opacity="0.5"/>
    <g fill="#f59e0b">
      <circle cx="138" cy="421" r="16"/>
      <circle cx="171" cy="398" r="14"/>
      <circle cx="205" cy="429" r="15"/>
      <circle cx="228" cy="387" r="12"/>
      <circle cx="95" cy="354" r="10"/>
      <circle cx="151" cy="317" r="11"/>
      <circle cx="222" cy="306" r="10"/>
      <circle cx="266" cy="254" r="9"/>
    </g>
    <path d="M156 404 C140 354 174 330 219 301 C242 286 260 268 268 245" fill="none" stroke="#f59e0b" stroke-width="8" stroke-linecap="round" opacity="0.6"/>
  </g>
  <g transform="translate(632 166)">
    <rect x="0" y="72" width="342" height="440" rx="46" fill="#ffffff" stroke="#99f6e4" stroke-width="9"/>
    <path d="M44 184 C122 150 214 214 298 180 L298 456 L44 456 Z" fill="#99f6e4" opacity="0.54"/>
    <circle cx="172" cy="208" r="28" fill="#8b5cf6" opacity="0.9"/>
    <circle cx="142" cy="240" r="16" fill="#8b5cf6" opacity="0.72"/>
    <circle cx="206" cy="244" r="16" fill="#8b5cf6" opacity="0.72"/>
    <circle cx="110" cy="284" r="12" fill="#8b5cf6" opacity="0.58"/>
    <circle cx="236" cy="292" r="12" fill="#8b5cf6" opacity="0.58"/>
    <circle cx="80" cy="336" r="9" fill="#8b5cf6" opacity="0.46"/>
    <circle cx="264" cy="350" r="9" fill="#8b5cf6" opacity="0.46"/>
    <path d="M170 207 C120 231 103 271 80 333 M174 207 C218 236 240 285 264 349" fill="none" stroke="#7c3aed" stroke-width="8" stroke-linecap="round" opacity="0.48"/>
  </g>
  <g transform="translate(1120 208)">
    <rect x="16" y="118" width="260" height="92" rx="46" fill="#e2e8f0" stroke="#475569" stroke-width="9"/>
    <rect x="254" y="144" width="82" height="40" rx="20" fill="#e2e8f0" stroke="#475569" stroke-width="9"/>
    <path d="M88 118 V58 M202 118 V58" stroke="#475569" stroke-width="10" stroke-linecap="round"/>
    <path d="M64 58 H226" stroke="#475569" stroke-width="10" stroke-linecap="round"/>
    <path d="M64 258 H226" stroke="#475569" stroke-width="10" stroke-linecap="round"/>
    <path d="M146 210 V258" stroke="#475569" stroke-width="10" stroke-linecap="round"/>
    <g fill="#38bdf8">
      <circle cx="74" cy="162" r="12"/>
      <circle cx="118" cy="171" r="12"/>
      <circle cx="160" cy="151" r="12"/>
      <circle cx="202" cy="174" r="12"/>
      <circle cx="238" cy="156" r="12"/>
    </g>
    <path d="M370 164 H306" fill="none" stroke="#0f766e" stroke-width="12" marker-end="url(#arrow)" stroke-linecap="round"/>
    <g transform="translate(28 378)">
      <rect x="0" y="0" width="248" height="72" rx="36" fill="#cbd5e1" stroke="#475569" stroke-width="8"/>
      <g fill="#38bdf8">
        <circle cx="104" cy="36" r="12"/>
        <circle cx="130" cy="36" r="12"/>
        <circle cx="156" cy="36" r="12"/>
        <circle cx="182" cy="36" r="12"/>
        <circle cx="208" cy="36" r="12"/>
      </g>
    </g>
  </g>
</svg>
